<?xml version="1.0" encoding="UTF-8" standalone="no"?>
<!DOCTYPE svg PUBLIC "-//W3C//DTD SVG 1.1//EN"
 "http://www.w3.org/Graphics/SVG/1.1/DTD/svg11.dtd">
<!-- Generated by graphviz version 2.43.0 (0)
 -->
<!-- Title: classes Pages: 1 -->
<svg width="1271pt" height="443pt"
 viewBox="0.00 0.00 1270.50 442.80" xmlns="http://www.w3.org/2000/svg" xmlns:xlink="http://www.w3.org/1999/xlink">
<g id="graph0" class="graph" transform="scale(1 1) rotate(0) translate(4 438.8)">
<title>classes</title>
<polygon fill="white" stroke="transparent" points="-4,4 -4,-438.8 1266.5,-438.8 1266.5,4 -4,4"/>
<!-- shoal.log._LogSingleton.Config -->
<g id="node1" class="node">
<title>shoal.log._LogSingleton.Config</title>
<polygon fill="none" stroke="black" points="0,-60.5 0,-129.5 232,-129.5 232,-60.5 0,-60.5"/>
<text text-anchor="start" x="93" y="-114.3" font-family="Times,serif" font-size="14.00">Config</text>
<polyline fill="none" stroke="black" points="0,-106.5 232,-106.5 "/>
<text text-anchor="start" x="8" y="-91.3" font-family="Times,serif" font-size="14.00">arbitrary_types_allowed : bool</text>
<polyline fill="none" stroke="black" points="0,-83.5 232,-83.5 "/>
<text text-anchor="start" x="113.5" y="-68.3" font-family="Times,serif" font-size="14.00"> </text>
</g>
<!-- shoal.cli.GlobalTaskOptions -->
<g id="node2" class="node">
<title>shoal.cli.GlobalTaskOptions</title>
<polygon fill="none" stroke="black" points="250,-23 250,-167 410,-167 410,-23 250,-23"/>
<text text-anchor="start" x="263" y="-151.8" font-family="Times,serif" font-size="14.00">GlobalTaskOptions</text>
<polyline fill="none" stroke="black" points="250,-144 410,-144 "/>
<text text-anchor="start" x="258" y="-128.8" font-family="Times,serif" font-size="14.00">file_args</text>
<text text-anchor="start" x="258" y="-113.8" font-family="Times,serif" font-size="14.00">file_args : List[Path]</text>
<text text-anchor="start" x="258" y="-98.8" font-family="Times,serif" font-size="14.00">verbose</text>
<text text-anchor="start" x="258" y="-83.8" font-family="Times,serif" font-size="14.00">verbose : int</text>
<text text-anchor="start" x="258" y="-68.8" font-family="Times,serif" font-size="14.00">working_dir : Path</text>
<text text-anchor="start" x="258" y="-53.8" font-family="Times,serif" font-size="14.00">working_dir : Path</text>
<polyline fill="none" stroke="black" points="250,-46 410,-46 "/>
<text text-anchor="start" x="327.5" y="-30.8" font-family="Times,serif" font-size="14.00"> </text>
</g>
<!-- shoal.cli.start_program._ShoalConfig -->
<g id="node8" class="node">
<title>shoal.cli.start_program._ShoalConfig</title>
<polygon fill="none" stroke="black" points="275.5,-249 275.5,-318 384.5,-318 384.5,-249 275.5,-249"/>
<text text-anchor="start" x="283.5" y="-302.8" font-family="Times,serif" font-size="14.00">_ShoalConfig</text>
<polyline fill="none" stroke="black" points="275.5,-295 384.5,-295 "/>
<text text-anchor="start" x="318" y="-279.8" font-family="Times,serif" font-size="14.00">gto</text>
<polyline fill="none" stroke="black" points="275.5,-272 384.5,-272 "/>
<text text-anchor="start" x="327.5" y="-256.8" font-family="Times,serif" font-size="14.00"> </text>
</g>
<!-- shoal.cli.GlobalTaskOptions&#45;&gt;shoal.cli.start_program._ShoalConfig -->
<g id="edge2" class="edge">
<title>shoal.cli.GlobalTaskOptions&#45;&gt;shoal.cli.start_program._ShoalConfig</title>
<path fill="none" stroke="black" d="M330,-167.04C330,-190.34 330,-215.6 330,-236.53"/>
<polygon fill="black" stroke="black" points="330,-236.63 334,-242.63 330,-248.63 326,-242.63 330,-236.63"/>
<text text-anchor="middle" x="342" y="-211.8" font-family="Times,serif" font-size="14.00" fill="green">gto</text>
</g>
<!-- shoal.cli.ShoalConfig -->
<g id="node3" class="node">
<title>shoal.cli.ShoalConfig</title>
<polygon fill="none" stroke="black" points="243.5,-363.5 243.5,-434.3 416.5,-434.3 416.5,-363.5 243.5,-363.5"/>
<text text-anchor="start" x="287" y="-419.1" font-family="Times,serif" font-size="14.00">ShoalConfig</text>
<polyline fill="none" stroke="black" points="243.5,-411.3 416.5,-411.3 "/>
<polyline fill="none" stroke="black" points="243.5,-386.5 416.5,-386.5 "/>
<text text-anchor="start" x="251.5" y="-371.3" font-family="Times,serif" font-size="14.00">global_defaults(): Dict</text>
</g>
<!-- shoal.pretty_process._DelegatedTask -->
<g id="node4" class="node">
<title>shoal.pretty_process._DelegatedTask</title>
<polygon fill="none" stroke="black" points="428,-59.6 428,-130.4 556,-130.4 556,-59.6 428,-59.6"/>
<text text-anchor="start" x="436" y="-115.2" font-family="Times,serif" font-size="14.00">_DelegatedTask</text>
<polyline fill="none" stroke="black" points="428,-107.4 556,-107.4 "/>
<polyline fill="none" stroke="black" points="428,-82.6 556,-82.6 "/>
<text text-anchor="start" x="489.5" y="-67.4" font-family="Times,serif" font-size="14.00"> </text>
</g>
<!-- shoal.log._LogCallable -->
<g id="node5" class="node">
<title>shoal.log._LogCallable</title>
<polygon fill="none" stroke="black" points="574.5,-59.6 574.5,-130.4 681.5,-130.4 681.5,-59.6 574.5,-59.6"/>
<text text-anchor="start" x="582.5" y="-115.2" font-family="Times,serif" font-size="14.00">_LogCallable</text>
<polyline fill="none" stroke="black" points="574.5,-107.4 681.5,-107.4 "/>
<polyline fill="none" stroke="black" points="574.5,-82.6 681.5,-82.6 "/>
<text text-anchor="start" x="625.5" y="-67.4" font-family="Times,serif" font-size="14.00"> </text>
</g>
<!-- shoal.log._LogSingleton -->
<g id="node6" class="node">
<title>shoal.log._LogSingleton</title>
<polygon fill="none" stroke="black" points="569,-241.5 569,-325.5 687,-325.5 687,-241.5 569,-241.5"/>
<text text-anchor="start" x="577" y="-310.3" font-family="Times,serif" font-size="14.00">_LogSingleton</text>
<polyline fill="none" stroke="black" points="569,-302.5 687,-302.5 "/>
<text text-anchor="start" x="617" y="-287.3" font-family="Times,serif" font-size="14.00">log</text>
<text text-anchor="start" x="617" y="-272.3" font-family="Times,serif" font-size="14.00">log</text>
<polyline fill="none" stroke="black" points="569,-264.5 687,-264.5 "/>
<text text-anchor="start" x="625.5" y="-249.3" font-family="Times,serif" font-size="14.00"> </text>
</g>
<!-- shoal.log._LogCallable&#45;&gt;shoal.log._LogSingleton -->
<g id="edge3" class="edge">
<title>shoal.log._LogCallable&#45;&gt;shoal.log._LogSingleton</title>
<path fill="none" stroke="black" d="M628,-130.64C628,-158.26 628,-197.42 628,-229.05"/>
<polygon fill="black" stroke="black" points="628,-229.21 632,-235.21 628,-241.21 624,-235.21 628,-229.21"/>
<text text-anchor="middle" x="639" y="-211.8" font-family="Times,serif" font-size="14.00" fill="green">log</text>
</g>
<!-- shoal.log._Logger -->
<g id="node7" class="node">
<title>shoal.log._Logger</title>
<polygon fill="none" stroke="black" points="699.5,-14.6 699.5,-175.4 944.5,-175.4 944.5,-14.6 699.5,-14.6"/>
<text text-anchor="start" x="793" y="-160.2" font-family="Times,serif" font-size="14.00">_Logger</text>
<polyline fill="none" stroke="black" points="699.5,-152.4 944.5,-152.4 "/>
<polyline fill="none" stroke="black" points="699.5,-127.6 944.5,-127.6 "/>
<text text-anchor="start" x="707.5" y="-112.4" font-family="Times,serif" font-size="14.00">debug(message: str): None</text>
<text text-anchor="start" x="707.5" y="-97.4" font-family="Times,serif" font-size="14.00">error(message: str): None</text>
<text text-anchor="start" x="707.5" y="-82.4" font-family="Times,serif" font-size="14.00">exception(message: str): None</text>
<text text-anchor="start" x="707.5" y="-67.4" font-family="Times,serif" font-size="14.00">info(message: str): None</text>
<text text-anchor="start" x="707.5" y="-52.4" font-family="Times,serif" font-size="14.00">text(message: str): None</text>
<text text-anchor="start" x="707.5" y="-37.4" font-family="Times,serif" font-size="14.00">text_debug(message: str): None</text>
<text text-anchor="start" x="707.5" y="-22.4" font-family="Times,serif" font-size="14.00">warning(message: str): None</text>
</g>
<!-- shoal.cli.start_program._ShoalConfig&#45;&gt;shoal.cli.ShoalConfig -->
<g id="edge1" class="edge">
<title>shoal.cli.start_program._ShoalConfig&#45;&gt;shoal.cli.ShoalConfig</title>
<path fill="none" stroke="black" d="M330,-318.22C330,-329.22 330,-341.62 330,-353.3"/>
<polygon fill="none" stroke="black" points="326.5,-353.33 330,-363.33 333.5,-353.33 326.5,-353.33"/>
</g>
<!-- shoal.cli._ShoalProgram -->
<g id="node9" class="node">
<title>shoal.cli._ShoalProgram</title>
<polygon fill="none" stroke="black" points="963,-59.6 963,-130.4 1109,-130.4 1109,-59.6 963,-59.6"/>
<text text-anchor="start" x="981.5" y="-115.2" font-family="Times,serif" font-size="14.00">_ShoalProgram</text>
<polyline fill="none" stroke="black" points="963,-107.4 1109,-107.4 "/>
<polyline fill="none" stroke="black" points="963,-82.6 1109,-82.6 "/>
<text text-anchor="start" x="971" y="-67.4" font-family="Times,serif" font-size="14.00">print_help(): None</text>
</g>
<!-- shoal.log._Styles -->
<g id="node10" class="node">
<title>shoal.log._Styles</title>
<polygon fill="none" stroke="black" points="1127.5,-0.5 1127.5,-189.5 1262.5,-189.5 1262.5,-0.5 1127.5,-0.5"/>
<text text-anchor="start" x="1169" y="-174.3" font-family="Times,serif" font-size="14.00">_Styles</text>
<polyline fill="none" stroke="black" points="1127.5,-166.5 1262.5,-166.5 "/>
<text text-anchor="start" x="1135.5" y="-151.3" font-family="Times,serif" font-size="14.00">key : str</text>
<text text-anchor="start" x="1135.5" y="-136.3" font-family="Times,serif" font-size="14.00">level_debug : str</text>
<text text-anchor="start" x="1135.5" y="-121.3" font-family="Times,serif" font-size="14.00">level_error : str</text>
<text text-anchor="start" x="1135.5" y="-106.3" font-family="Times,serif" font-size="14.00">level_info : str</text>
<text text-anchor="start" x="1135.5" y="-91.3" font-family="Times,serif" font-size="14.00">level_lookup</text>
<text text-anchor="start" x="1135.5" y="-76.3" font-family="Times,serif" font-size="14.00">level_warn : str</text>
<text text-anchor="start" x="1135.5" y="-61.3" font-family="Times,serif" font-size="14.00">message : str</text>
<text text-anchor="start" x="1135.5" y="-46.3" font-family="Times,serif" font-size="14.00">timestamp : str</text>
<text text-anchor="start" x="1135.5" y="-31.3" font-family="Times,serif" font-size="14.00">value : str</text>
<polyline fill="none" stroke="black" points="1127.5,-23.5 1262.5,-23.5 "/>
<text text-anchor="start" x="1192.5" y="-8.3" font-family="Times,serif" font-size="14.00"> </text>
</g>
</g>
</svg>
