<?xml version="1.0" encoding="UTF-8" standalone="no"?>
<!DOCTYPE svg PUBLIC "-//W3C//DTD SVG 1.1//EN"
 "http://www.w3.org/Graphics/SVG/1.1/DTD/svg11.dtd">
<!-- Generated by graphviz version 7.1.0 (20230121.1956)
 -->
<!-- Title: classes Pages: 1 -->
<svg width="1024pt" height="153pt"
 viewBox="0.00 0.00 1024.00 153.00" xmlns="http://www.w3.org/2000/svg" xmlns:xlink="http://www.w3.org/1999/xlink">
<g id="graph0" class="graph" transform="scale(1 1) rotate(0) translate(4 149)">
<title>classes</title>
<polygon fill="white" stroke="none" points="-4,4 -4,-149 1020,-149 1020,4 -4,4"/>
<!-- shoal._tang.Tang -->
<g id="node1" class="node">
<title>shoal._tang.Tang</title>
<polygon fill="none" stroke="black" points="0,-15.5 0,-129.5 189,-129.5 189,-15.5 0,-15.5"/>
<text text-anchor="start" x="80.5" y="-114.3" font-family="Times,serif" font-size="14.00">Tang</text>
<polyline fill="none" stroke="black" points="0,-106.5 189,-106.5"/>
<text text-anchor="start" x="8" y="-91.3" font-family="Times,serif" font-size="14.00">description : str</text>
<text text-anchor="start" x="8" y="-76.3" font-family="Times,serif" font-size="14.00">fun : Callable[[List[str]], None]</text>
<text text-anchor="start" x="8" y="-61.3" font-family="Times,serif" font-size="14.00">phony : bool</text>
<text text-anchor="start" x="8" y="-46.3" font-family="Times,serif" font-size="14.00">target : str</text>
<polyline fill="none" stroke="black" points="0,-38.5 189,-38.5"/>
<text text-anchor="start" x="25.5" y="-23.3" font-family="Times,serif" font-size="14.00">run(args: List[str]): None</text>
</g>
<!-- shoal._tangs.Tangs -->
<g id="node2" class="node">
<title>shoal._tangs.Tangs</title>
<polygon fill="none" stroke="black" points="207.5,-38 207.5,-107 377.5,-107 377.5,-38 207.5,-38"/>
<text text-anchor="start" x="275.5" y="-91.8" font-family="Times,serif" font-size="14.00">Tangs</text>
<polyline fill="none" stroke="black" points="207.5,-84 377.5,-84"/>
<text text-anchor="start" x="229" y="-68.8" font-family="Times,serif" font-size="14.00">targets : Dict[str, Tang]</text>
<polyline fill="none" stroke="black" points="207.5,-61 377.5,-61"/>
<text text-anchor="start" x="215.5" y="-45.8" font-family="Times,serif" font-size="14.00">add_tang(tang: Tang): None</text>
</g>
<!-- shoal._ling._CLIOptions -->
<g id="node3" class="node">
<title>shoal._ling._CLIOptions</title>
<polygon fill="none" stroke="black" points="396,-23 396,-122 525,-122 525,-23 396,-23"/>
<text text-anchor="start" x="424.5" y="-106.8" font-family="Times,serif" font-size="14.00">_CLIOptions</text>
<polyline fill="none" stroke="black" points="396,-99 525,-99"/>
<text text-anchor="start" x="404" y="-83.8" font-family="Times,serif" font-size="14.00">debug : bool</text>
<text text-anchor="start" x="404" y="-68.8" font-family="Times,serif" font-size="14.00">shoal_args : List[str]</text>
<text text-anchor="start" x="404" y="-53.8" font-family="Times,serif" font-size="14.00">task_help : bool</text>
<polyline fill="none" stroke="black" points="396,-46 525,-46"/>
<text text-anchor="start" x="458.5" y="-30.8" font-family="Times,serif" font-size="14.00"> </text>
</g>
<!-- shoal._log._LogSingleton -->
<g id="node4" class="node">
<title>shoal._log._LogSingleton</title>
<polygon fill="none" stroke="black" points="543.5,-30.5 543.5,-114.5 711.5,-114.5 711.5,-30.5 543.5,-30.5"/>
<text text-anchor="start" x="587" y="-99.3" font-family="Times,serif" font-size="14.00">_LogSingleton</text>
<polyline fill="none" stroke="black" points="543.5,-91.5 711.5,-91.5"/>
<text text-anchor="start" x="551.5" y="-76.3" font-family="Times,serif" font-size="14.00">log</text>
<text text-anchor="start" x="551.5" y="-61.3" font-family="Times,serif" font-size="14.00">log : Callable[[Any], None]</text>
<polyline fill="none" stroke="black" points="543.5,-53.5 711.5,-53.5"/>
<text text-anchor="start" x="625.5" y="-38.3" font-family="Times,serif" font-size="14.00"> </text>
</g>
<!-- shoal._log._Logger -->
<g id="node5" class="node">
<title>shoal._log._Logger</title>
<polygon fill="none" stroke="black" points="730,-8 730,-137 891,-137 891,-8 730,-8"/>
<text text-anchor="start" x="787.5" y="-121.8" font-family="Times,serif" font-size="14.00">_Logger</text>
<polyline fill="none" stroke="black" points="730,-114 891,-114"/>
<polyline fill="none" stroke="black" points="730,-91 891,-91"/>
<text text-anchor="start" x="738" y="-75.8" font-family="Times,serif" font-size="14.00">debug(message): None</text>
<text text-anchor="start" x="738" y="-60.8" font-family="Times,serif" font-size="14.00">error(message): None</text>
<text text-anchor="start" x="738" y="-45.8" font-family="Times,serif" font-size="14.00">exception(message): None</text>
<text text-anchor="start" x="738" y="-30.8" font-family="Times,serif" font-size="14.00">info(message): None</text>
<text text-anchor="start" x="738" y="-15.8" font-family="Times,serif" font-size="14.00">warning(message): None</text>
</g>
<!-- shoal._log._Styles -->
<g id="node6" class="node">
<title>shoal._log._Styles</title>
<polygon fill="none" stroke="black" points="909,-0.5 909,-144.5 1016,-144.5 1016,-0.5 909,-0.5"/>
<text text-anchor="start" x="942.5" y="-129.3" font-family="Times,serif" font-size="14.00">_Styles</text>
<polyline fill="none" stroke="black" points="909,-121.5 1016,-121.5"/>
<text text-anchor="start" x="917" y="-106.3" font-family="Times,serif" font-size="14.00">key : str</text>
<text text-anchor="start" x="917" y="-91.3" font-family="Times,serif" font-size="14.00">level_debug : str</text>
<text text-anchor="start" x="917" y="-76.3" font-family="Times,serif" font-size="14.00">level_error : str</text>
<text text-anchor="start" x="917" y="-61.3" font-family="Times,serif" font-size="14.00">level_info : str</text>
<text text-anchor="start" x="917" y="-46.3" font-family="Times,serif" font-size="14.00">level_warn : str</text>
<text text-anchor="start" x="917" y="-31.3" font-family="Times,serif" font-size="14.00">value : str</text>
<polyline fill="none" stroke="black" points="909,-23.5 1016,-23.5"/>
<text text-anchor="start" x="960.5" y="-8.3" font-family="Times,serif" font-size="14.00"> </text>
</g>
</g>
</svg>
