<?xml version="1.0" encoding="UTF-8" standalone="no"?>
<!DOCTYPE svg PUBLIC "-//W3C//DTD SVG 1.1//EN"
 "http://www.w3.org/Graphics/SVG/1.1/DTD/svg11.dtd">
<!-- Generated by graphviz version 2.43.0 (0)
 -->
<!-- Title: classes Pages: 1 -->
<svg width="1716pt" height="198pt"
 viewBox="0.00 0.00 1715.50 198.00" xmlns="http://www.w3.org/2000/svg" xmlns:xlink="http://www.w3.org/1999/xlink">
<g id="graph0" class="graph" transform="scale(1 1) rotate(0) translate(4 194)">
<title>classes</title>
<polygon fill="white" stroke="transparent" points="-4,4 -4,-194 1711.5,-194 1711.5,4 -4,4"/>
<!-- shoal.dev_boards.merge.gh_wrapper.PRsSchema.BaseConfig -->
<g id="node1" class="node">
<title>shoal.dev_boards.merge.gh_wrapper.PRsSchema.BaseConfig</title>
<polygon fill="none" stroke="black" points="0,-53 0,-137 107,-137 107,-53 0,-53"/>
<text text-anchor="start" x="13" y="-121.8" font-family="Times,serif" font-size="14.00">BaseConfig</text>
<polyline fill="none" stroke="black" points="0,-114 107,-114 "/>
<text text-anchor="start" x="8" y="-98.8" font-family="Times,serif" font-size="14.00">coerce : bool</text>
<text text-anchor="start" x="8" y="-83.8" font-family="Times,serif" font-size="14.00">strict : bool</text>
<polyline fill="none" stroke="black" points="0,-76 107,-76 "/>
<text text-anchor="start" x="51" y="-60.8" font-family="Times,serif" font-size="14.00"> </text>
</g>
<!-- shoal.dev_boards.merge.config.Config -->
<g id="node2" class="node">
<title>shoal.dev_boards.merge.config.Config</title>
<polygon fill="none" stroke="black" points="125.5,-60.5 125.5,-129.5 349.5,-129.5 349.5,-60.5 125.5,-60.5"/>
<text text-anchor="start" x="214.5" y="-114.3" font-family="Times,serif" font-size="14.00">Config</text>
<polyline fill="none" stroke="black" points="125.5,-106.5 349.5,-106.5 "/>
<text text-anchor="start" x="133.5" y="-91.3" font-family="Times,serif" font-size="14.00">search_kwargs : Dict[str, str]</text>
<polyline fill="none" stroke="black" points="125.5,-83.5 349.5,-83.5 "/>
<text text-anchor="start" x="235" y="-68.3" font-family="Times,serif" font-size="14.00"> </text>
</g>
<!-- shoal.dev_boards.merge.app.DebugLog -->
<g id="node3" class="node">
<title>shoal.dev_boards.merge.app.DebugLog</title>
<polygon fill="none" stroke="black" points="368,-53 368,-137 601,-137 601,-53 368,-53"/>
<text text-anchor="start" x="448" y="-121.8" font-family="Times,serif" font-size="14.00">DebugLog</text>
<polyline fill="none" stroke="black" points="368,-114 601,-114 "/>
<text text-anchor="start" x="415" y="-98.8" font-family="Times,serif" font-size="14.00">DEFAULT_CSS : str</text>
<polyline fill="none" stroke="black" points="368,-91 601,-91 "/>
<text text-anchor="start" x="376" y="-75.8" font-family="Times,serif" font-size="14.00">action_toggle_text_log(): None</text>
<text text-anchor="start" x="376" y="-60.8" font-family="Times,serif" font-size="14.00">compose(): ComposeResult</text>
</g>
<!-- shoal.dev_boards.merge.app.MergeApp -->
<g id="node4" class="node">
<title>shoal.dev_boards.merge.app.MergeApp</title>
<polygon fill="none" stroke="black" points="619,-45.5 619,-144.5 888,-144.5 888,-45.5 619,-45.5"/>
<text text-anchor="start" x="716" y="-129.3" font-family="Times,serif" font-size="14.00">MergeApp</text>
<polyline fill="none" stroke="black" points="619,-121.5 888,-121.5 "/>
<text text-anchor="start" x="627" y="-106.3" font-family="Times,serif" font-size="14.00">BINDINGS : ClassVar[list[Binding]]</text>
<text text-anchor="start" x="627" y="-91.3" font-family="Times,serif" font-size="14.00">TITLE : str</text>
<polyline fill="none" stroke="black" points="619,-83.5 888,-83.5 "/>
<text text-anchor="start" x="645" y="-68.3" font-family="Times,serif" font-size="14.00">action_toggle_text_log(): None</text>
<text text-anchor="start" x="645" y="-53.3" font-family="Times,serif" font-size="14.00">compose(): ComposeResult</text>
</g>
<!-- shoal.dev_boards.merge.app.PRsDataTable -->
<g id="node5" class="node">
<title>shoal.dev_boards.merge.app.PRsDataTable</title>
<polygon fill="none" stroke="black" points="906,-15.5 906,-174.5 1175,-174.5 1175,-15.5 906,-15.5"/>
<text text-anchor="start" x="990.5" y="-159.3" font-family="Times,serif" font-size="14.00">PRsDataTable</text>
<polyline fill="none" stroke="black" points="906,-151.5 1175,-151.5 "/>
<text text-anchor="start" x="914" y="-136.3" font-family="Times,serif" font-size="14.00">BINDINGS : ClassVar[list[Binding]]</text>
<text text-anchor="start" x="914" y="-121.3" font-family="Times,serif" font-size="14.00">cursor_type : str</text>
<text text-anchor="start" x="914" y="-106.3" font-family="Times,serif" font-size="14.00">zebra_stripes : bool</text>
<polyline fill="none" stroke="black" points="906,-98.5 1175,-98.5 "/>
<text text-anchor="start" x="917" y="-83.3" font-family="Times,serif" font-size="14.00">action_merge_selected_pr(): None</text>
<text text-anchor="start" x="917" y="-68.3" font-family="Times,serif" font-size="14.00">action_open_selected_pr(): None</text>
<text text-anchor="start" x="917" y="-53.3" font-family="Times,serif" font-size="14.00">action_refresh_rows(): None</text>
<text text-anchor="start" x="917" y="-38.3" font-family="Times,serif" font-size="14.00">action_squash_selected_pr(): None</text>
<text text-anchor="start" x="917" y="-23.3" font-family="Times,serif" font-size="14.00">on_mount(): None</text>
</g>
<!-- shoal.dev_boards.merge.gh_wrapper.PRsSchema -->
<g id="node6" class="node">
<title>shoal.dev_boards.merge.gh_wrapper.PRsSchema</title>
<polygon fill="none" stroke="black" points="1193.5,-0.5 1193.5,-189.5 1457.5,-189.5 1457.5,-0.5 1193.5,-0.5"/>
<text text-anchor="start" x="1283" y="-174.3" font-family="Times,serif" font-size="14.00">PRsSchema</text>
<polyline fill="none" stroke="black" points="1193.5,-166.5 1457.5,-166.5 "/>
<text text-anchor="start" x="1201.5" y="-151.3" font-family="Times,serif" font-size="14.00">commentsCount : Series[int]</text>
<text text-anchor="start" x="1201.5" y="-136.3" font-family="Times,serif" font-size="14.00">createdAt : Series[np.datetime64]</text>
<text text-anchor="start" x="1201.5" y="-121.3" font-family="Times,serif" font-size="14.00">isDraft : Series[bool]</text>
<text text-anchor="start" x="1201.5" y="-106.3" font-family="Times,serif" font-size="14.00">isLocked : Series[bool]</text>
<text text-anchor="start" x="1201.5" y="-91.3" font-family="Times,serif" font-size="14.00">number : Series[str]</text>
<text text-anchor="start" x="1201.5" y="-76.3" font-family="Times,serif" font-size="14.00">repository : Series[str]</text>
<text text-anchor="start" x="1201.5" y="-61.3" font-family="Times,serif" font-size="14.00">state : Series[str]</text>
<text text-anchor="start" x="1201.5" y="-46.3" font-family="Times,serif" font-size="14.00">title : Series[str]</text>
<text text-anchor="start" x="1201.5" y="-31.3" font-family="Times,serif" font-size="14.00">updatedAt : Series[np.datetime64]</text>
<polyline fill="none" stroke="black" points="1193.5,-23.5 1457.5,-23.5 "/>
<text text-anchor="start" x="1323" y="-8.3" font-family="Times,serif" font-size="14.00"> </text>
</g>
<!-- shoal._runtime_type_check_setup._RuntimeTypeCheckingModes -->
<g id="node7" class="node">
<title>shoal._runtime_type_check_setup._RuntimeTypeCheckingModes</title>
<polygon fill="none" stroke="black" points="1475.5,-60.5 1475.5,-129.5 1707.5,-129.5 1707.5,-60.5 1475.5,-60.5"/>
<text text-anchor="start" x="1483.5" y="-114.3" font-family="Times,serif" font-size="14.00">_RuntimeTypeCheckingModes</text>
<polyline fill="none" stroke="black" points="1475.5,-106.5 1707.5,-106.5 "/>
<text text-anchor="start" x="1571.5" y="-91.3" font-family="Times,serif" font-size="14.00">name</text>
<polyline fill="none" stroke="black" points="1475.5,-83.5 1707.5,-83.5 "/>
<text text-anchor="start" x="1502" y="-68.3" font-family="Times,serif" font-size="14.00">from_environment(): Self</text>
</g>
</g>
</svg>
