<?xml version="1.0" encoding="UTF-8" standalone="no"?>
<!DOCTYPE svg PUBLIC "-//W3C//DTD SVG 1.1//EN"
 "http://www.w3.org/Graphics/SVG/1.1/DTD/svg11.dtd">
<!-- Generated by graphviz version 2.43.0 (0)
 -->
<!-- Title: classes Pages: 1 -->
<svg width="1679pt" height="198pt"
 viewBox="0.00 0.00 1678.50 198.00" xmlns="http://www.w3.org/2000/svg" xmlns:xlink="http://www.w3.org/1999/xlink">
<g id="graph0" class="graph" transform="scale(1 1) rotate(0) translate(4 194)">
<title>classes</title>
<polygon fill="white" stroke="transparent" points="-4,4 -4,-194 1674.5,-194 1674.5,4 -4,4"/>
<!-- shoal.dev_boards.merge.config.Config -->
<g id="node1" class="node">
<title>shoal.dev_boards.merge.config.Config</title>
<polygon fill="none" stroke="black" points="0,-60.5 0,-129.5 224,-129.5 224,-60.5 0,-60.5"/>
<text text-anchor="start" x="89" y="-114.3" font-family="Times,serif" font-size="14.00">Config</text>
<polyline fill="none" stroke="black" points="0,-106.5 224,-106.5 "/>
<text text-anchor="start" x="8" y="-91.3" font-family="Times,serif" font-size="14.00">search_kwargs : Dict[str, str]</text>
<polyline fill="none" stroke="black" points="0,-83.5 224,-83.5 "/>
<text text-anchor="start" x="109.5" y="-68.3" font-family="Times,serif" font-size="14.00"> </text>
</g>
<!-- shoal.dev_boards.merge.gh_wrapper.PRsSchema.Config -->
<g id="node2" class="node">
<title>shoal.dev_boards.merge.gh_wrapper.PRsSchema.Config</title>
<polygon fill="none" stroke="black" points="242.5,-53 242.5,-137 349.5,-137 349.5,-53 242.5,-53"/>
<text text-anchor="start" x="273" y="-121.8" font-family="Times,serif" font-size="14.00">Config</text>
<polyline fill="none" stroke="black" points="242.5,-114 349.5,-114 "/>
<text text-anchor="start" x="250.5" y="-98.8" font-family="Times,serif" font-size="14.00">coerce : bool</text>
<text text-anchor="start" x="250.5" y="-83.8" font-family="Times,serif" font-size="14.00">strict : bool</text>
<polyline fill="none" stroke="black" points="242.5,-76 349.5,-76 "/>
<text text-anchor="start" x="293.5" y="-60.8" font-family="Times,serif" font-size="14.00"> </text>
</g>
<!-- shoal.dev_boards.merge.app.DebugLog -->
<g id="node3" class="node">
<title>shoal.dev_boards.merge.app.DebugLog</title>
<polygon fill="none" stroke="black" points="367.5,-53 367.5,-137 600.5,-137 600.5,-53 367.5,-53"/>
<text text-anchor="start" x="447.5" y="-121.8" font-family="Times,serif" font-size="14.00">DebugLog</text>
<polyline fill="none" stroke="black" points="367.5,-114 600.5,-114 "/>
<text text-anchor="start" x="414.5" y="-98.8" font-family="Times,serif" font-size="14.00">DEFAULT_CSS : str</text>
<polyline fill="none" stroke="black" points="367.5,-91 600.5,-91 "/>
<text text-anchor="start" x="375.5" y="-75.8" font-family="Times,serif" font-size="14.00">action_toggle_text_log(): None</text>
<text text-anchor="start" x="375.5" y="-60.8" font-family="Times,serif" font-size="14.00">compose(): ComposeResult</text>
</g>
<!-- shoal.dev_boards.merge.app.MergeApp -->
<g id="node4" class="node">
<title>shoal.dev_boards.merge.app.MergeApp</title>
<polygon fill="none" stroke="black" points="618.5,-45.5 618.5,-144.5 887.5,-144.5 887.5,-45.5 618.5,-45.5"/>
<text text-anchor="start" x="715.5" y="-129.3" font-family="Times,serif" font-size="14.00">MergeApp</text>
<polyline fill="none" stroke="black" points="618.5,-121.5 887.5,-121.5 "/>
<text text-anchor="start" x="626.5" y="-106.3" font-family="Times,serif" font-size="14.00">BINDINGS : ClassVar[list[Binding]]</text>
<text text-anchor="start" x="626.5" y="-91.3" font-family="Times,serif" font-size="14.00">TITLE : str</text>
<polyline fill="none" stroke="black" points="618.5,-83.5 887.5,-83.5 "/>
<text text-anchor="start" x="644.5" y="-68.3" font-family="Times,serif" font-size="14.00">action_toggle_text_log(): None</text>
<text text-anchor="start" x="644.5" y="-53.3" font-family="Times,serif" font-size="14.00">compose(): ComposeResult</text>
</g>
<!-- shoal.dev_boards.merge.app.PRsDataTable -->
<g id="node5" class="node">
<title>shoal.dev_boards.merge.app.PRsDataTable</title>
<polygon fill="none" stroke="black" points="905.5,-15.5 905.5,-174.5 1174.5,-174.5 1174.5,-15.5 905.5,-15.5"/>
<text text-anchor="start" x="990" y="-159.3" font-family="Times,serif" font-size="14.00">PRsDataTable</text>
<polyline fill="none" stroke="black" points="905.5,-151.5 1174.5,-151.5 "/>
<text text-anchor="start" x="913.5" y="-136.3" font-family="Times,serif" font-size="14.00">BINDINGS : ClassVar[list[Binding]]</text>
<text text-anchor="start" x="913.5" y="-121.3" font-family="Times,serif" font-size="14.00">cursor_type : str</text>
<text text-anchor="start" x="913.5" y="-106.3" font-family="Times,serif" font-size="14.00">zebra_stripes : bool</text>
<polyline fill="none" stroke="black" points="905.5,-98.5 1174.5,-98.5 "/>
<text text-anchor="start" x="916.5" y="-83.3" font-family="Times,serif" font-size="14.00">action_merge_selected_pr(): None</text>
<text text-anchor="start" x="916.5" y="-68.3" font-family="Times,serif" font-size="14.00">action_open_selected_pr(): None</text>
<text text-anchor="start" x="916.5" y="-53.3" font-family="Times,serif" font-size="14.00">action_refresh_rows(): None</text>
<text text-anchor="start" x="916.5" y="-38.3" font-family="Times,serif" font-size="14.00">action_squash_selected_pr(): None</text>
<text text-anchor="start" x="916.5" y="-23.3" font-family="Times,serif" font-size="14.00">on_mount(): None</text>
</g>
<!-- shoal.dev_boards.merge.gh_wrapper.PRsSchema -->
<g id="node6" class="node">
<title>shoal.dev_boards.merge.gh_wrapper.PRsSchema</title>
<polygon fill="none" stroke="black" points="1193,-0.5 1193,-189.5 1457,-189.5 1457,-0.5 1193,-0.5"/>
<text text-anchor="start" x="1282.5" y="-174.3" font-family="Times,serif" font-size="14.00">PRsSchema</text>
<polyline fill="none" stroke="black" points="1193,-166.5 1457,-166.5 "/>
<text text-anchor="start" x="1201" y="-151.3" font-family="Times,serif" font-size="14.00">commentsCount : Series[int]</text>
<text text-anchor="start" x="1201" y="-136.3" font-family="Times,serif" font-size="14.00">createdAt : Series[np.datetime64]</text>
<text text-anchor="start" x="1201" y="-121.3" font-family="Times,serif" font-size="14.00">isDraft : Series[bool]</text>
<text text-anchor="start" x="1201" y="-106.3" font-family="Times,serif" font-size="14.00">isLocked : Series[bool]</text>
<text text-anchor="start" x="1201" y="-91.3" font-family="Times,serif" font-size="14.00">number : Series[str]</text>
<text text-anchor="start" x="1201" y="-76.3" font-family="Times,serif" font-size="14.00">repository : Series[str]</text>
<text text-anchor="start" x="1201" y="-61.3" font-family="Times,serif" font-size="14.00">state : Series[str]</text>
<text text-anchor="start" x="1201" y="-46.3" font-family="Times,serif" font-size="14.00">title : Series[str]</text>
<text text-anchor="start" x="1201" y="-31.3" font-family="Times,serif" font-size="14.00">updatedAt : Series[np.datetime64]</text>
<polyline fill="none" stroke="black" points="1193,-23.5 1457,-23.5 "/>
<text text-anchor="start" x="1322.5" y="-8.3" font-family="Times,serif" font-size="14.00"> </text>
</g>
<!-- shoal._BeartypeModes -->
<g id="node7" class="node">
<title>shoal._BeartypeModes</title>
<polygon fill="none" stroke="black" points="1475.5,-60.5 1475.5,-129.5 1670.5,-129.5 1670.5,-60.5 1475.5,-60.5"/>
<text text-anchor="start" x="1513" y="-114.3" font-family="Times,serif" font-size="14.00">_BeartypeModes</text>
<polyline fill="none" stroke="black" points="1475.5,-106.5 1670.5,-106.5 "/>
<text text-anchor="start" x="1553" y="-91.3" font-family="Times,serif" font-size="14.00">name</text>
<polyline fill="none" stroke="black" points="1475.5,-83.5 1670.5,-83.5 "/>
<text text-anchor="start" x="1483.5" y="-68.3" font-family="Times,serif" font-size="14.00">from_environment(): Self</text>
</g>
</g>
</svg>
