<?xml version="1.0" encoding="UTF-8" standalone="no"?>
<!DOCTYPE svg PUBLIC "-//W3C//DTD SVG 1.1//EN"
 "http://www.w3.org/Graphics/SVG/1.1/DTD/svg11.dtd">
<!-- Generated by graphviz version 7.1.0 (20230121.1956)
 -->
<!-- Title: classes Pages: 1 -->
<svg width="430pt" height="108pt"
 viewBox="0.00 0.00 430.00 108.00" xmlns="http://www.w3.org/2000/svg" xmlns:xlink="http://www.w3.org/1999/xlink">
<g id="graph0" class="graph" transform="scale(1 1) rotate(0) translate(4 104)">
<title>classes</title>
<polygon fill="white" stroke="none" points="-4,4 -4,-104 426,-104 426,4 -4,4"/>
<!-- shoal.tang.Tang -->
<g id="node1" class="node">
<title>shoal.tang.Tang</title>
<polygon fill="none" stroke="black" points="0,-0.5 0,-99.5 234,-99.5 234,-0.5 0,-0.5"/>
<text text-anchor="start" x="103" y="-84.3" font-family="Times,serif" font-size="14.00">Tang</text>
<polyline fill="none" stroke="black" points="0,-76.5 234,-76.5"/>
<text text-anchor="start" x="8" y="-61.3" font-family="Times,serif" font-size="14.00">description : str</text>
<text text-anchor="start" x="8" y="-46.3" font-family="Times,serif" font-size="14.00">recipe : List[Callable[[List[str]], None]]</text>
<text text-anchor="start" x="8" y="-31.3" font-family="Times,serif" font-size="14.00">target : str</text>
<polyline fill="none" stroke="black" points="0,-23.5 234,-23.5"/>
<text text-anchor="start" x="48" y="-8.3" font-family="Times,serif" font-size="14.00">run(args: List[str]): None</text>
</g>
<!-- shoal.tangs.Tangs -->
<g id="node2" class="node">
<title>shoal.tangs.Tangs</title>
<polygon fill="none" stroke="black" points="252,-15.5 252,-84.5 422,-84.5 422,-15.5 252,-15.5"/>
<text text-anchor="start" x="320" y="-69.3" font-family="Times,serif" font-size="14.00">Tangs</text>
<polyline fill="none" stroke="black" points="252,-61.5 422,-61.5"/>
<text text-anchor="start" x="273.5" y="-46.3" font-family="Times,serif" font-size="14.00">targets : Dict[str, Tang]</text>
<polyline fill="none" stroke="black" points="252,-38.5 422,-38.5"/>
<text text-anchor="start" x="260" y="-23.3" font-family="Times,serif" font-size="14.00">add_tang(tang: Tang): None</text>
</g>
</g>
</svg>
