<?xml version="1.0" encoding="UTF-8" standalone="no"?>
<!DOCTYPE svg PUBLIC "-//W3C//DTD SVG 1.1//EN"
 "http://www.w3.org/Graphics/SVG/1.1/DTD/svg11.dtd">
<!-- Generated by graphviz version 7.1.0 (20230121.1956)
 -->
<!-- Title: classes Pages: 1 -->
<svg width="1044pt" height="441pt"
 viewBox="0.00 0.00 1044.00 441.00" xmlns="http://www.w3.org/2000/svg" xmlns:xlink="http://www.w3.org/1999/xlink">
<g id="graph0" class="graph" transform="scale(1 1) rotate(0) translate(4 437)">
<title>classes</title>
<polygon fill="white" stroke="none" points="-4,4 -4,-437 1040,-437 1040,4 -4,4"/>
<!-- shoal.log._LogSingleton.Config -->
<g id="node1" class="node">
<title>shoal.log._LogSingleton.Config</title>
<polygon fill="none" stroke="black" points="0,-60.5 0,-129.5 183,-129.5 183,-60.5 0,-60.5"/>
<text text-anchor="start" x="72.5" y="-114.3" font-family="Times,serif" font-size="14.00">Config</text>
<polyline fill="none" stroke="black" points="0,-106.5 183,-106.5"/>
<text text-anchor="start" x="8" y="-91.3" font-family="Times,serif" font-size="14.00">arbitrary_types_allowed : bool</text>
<polyline fill="none" stroke="black" points="0,-83.5 183,-83.5"/>
<text text-anchor="start" x="89.5" y="-68.3" font-family="Times,serif" font-size="14.00"> </text>
</g>
<!-- shoal.cli.GlobalTaskOptions -->
<g id="node2" class="node">
<title>shoal.cli.GlobalTaskOptions</title>
<polygon fill="none" stroke="black" points="201,-23 201,-167 330,-167 330,-23 201,-23"/>
<text text-anchor="start" x="212.5" y="-151.8" font-family="Times,serif" font-size="14.00">GlobalTaskOptions</text>
<polyline fill="none" stroke="black" points="201,-144 330,-144"/>
<text text-anchor="start" x="209" y="-128.8" font-family="Times,serif" font-size="14.00">file_args</text>
<text text-anchor="start" x="209" y="-113.8" font-family="Times,serif" font-size="14.00">file_args : List[Path]</text>
<text text-anchor="start" x="209" y="-98.8" font-family="Times,serif" font-size="14.00">verbose</text>
<text text-anchor="start" x="209" y="-83.8" font-family="Times,serif" font-size="14.00">verbose : int</text>
<text text-anchor="start" x="209" y="-68.8" font-family="Times,serif" font-size="14.00">working_dir : Path</text>
<text text-anchor="start" x="209" y="-53.8" font-family="Times,serif" font-size="14.00">working_dir : Path</text>
<polyline fill="none" stroke="black" points="201,-46 330,-46"/>
<text text-anchor="start" x="263.5" y="-30.8" font-family="Times,serif" font-size="14.00"> </text>
</g>
<!-- shoal.cli.start_program._ShoalConfig -->
<g id="node8" class="node">
<title>shoal.cli.start_program._ShoalConfig</title>
<polygon fill="none" stroke="black" points="219.5,-249 219.5,-318 311.5,-318 311.5,-249 219.5,-249"/>
<text text-anchor="start" x="227.5" y="-302.8" font-family="Times,serif" font-size="14.00">_ShoalConfig</text>
<polyline fill="none" stroke="black" points="219.5,-295 311.5,-295"/>
<text text-anchor="start" x="256.5" y="-279.8" font-family="Times,serif" font-size="14.00">gto</text>
<polyline fill="none" stroke="black" points="219.5,-272 311.5,-272"/>
<text text-anchor="start" x="263.5" y="-256.8" font-family="Times,serif" font-size="14.00"> </text>
</g>
<!-- shoal.cli.GlobalTaskOptions&#45;&gt;shoal.cli.start_program._ShoalConfig -->
<g id="edge2" class="edge">
<title>shoal.cli.GlobalTaskOptions&#45;&gt;shoal.cli.start_program._ShoalConfig</title>
<path fill="none" stroke="black" d="M265.5,-166.77C265.5,-190.05 265.5,-215.3 265.5,-236.27"/>
<polygon fill="black" stroke="black" points="265.5,-236.13 269.5,-242.13 265.5,-248.13 261.5,-242.13 265.5,-236.13"/>
<text text-anchor="middle" x="274.5" y="-211.8" font-family="Times,serif" font-size="14.00" fill="green">gto</text>
</g>
<!-- shoal.cli.ShoalConfig -->
<g id="node3" class="node">
<title>shoal.cli.ShoalConfig</title>
<polygon fill="none" stroke="black" points="195.5,-363.5 195.5,-432.5 335.5,-432.5 335.5,-363.5 195.5,-363.5"/>
<text text-anchor="start" x="231" y="-417.3" font-family="Times,serif" font-size="14.00">ShoalConfig</text>
<polyline fill="none" stroke="black" points="195.5,-409.5 335.5,-409.5"/>
<polyline fill="none" stroke="black" points="195.5,-386.5 335.5,-386.5"/>
<text text-anchor="start" x="203.5" y="-371.3" font-family="Times,serif" font-size="14.00">global_defaults(): Dict</text>
</g>
<!-- shoal.pretty_process._DelegatedTask -->
<g id="node4" class="node">
<title>shoal.pretty_process._DelegatedTask</title>
<polygon fill="none" stroke="black" points="348.5,-60.5 348.5,-129.5 452.5,-129.5 452.5,-60.5 348.5,-60.5"/>
<text text-anchor="start" x="356.5" y="-114.3" font-family="Times,serif" font-size="14.00">_DelegatedTask</text>
<polyline fill="none" stroke="black" points="348.5,-106.5 452.5,-106.5"/>
<polyline fill="none" stroke="black" points="348.5,-83.5 452.5,-83.5"/>
<text text-anchor="start" x="398.5" y="-68.3" font-family="Times,serif" font-size="14.00"> </text>
</g>
<!-- shoal.log._LogCallable -->
<g id="node5" class="node">
<title>shoal.log._LogCallable</title>
<polygon fill="none" stroke="black" points="470.5,-60.5 470.5,-129.5 560.5,-129.5 560.5,-60.5 470.5,-60.5"/>
<text text-anchor="start" x="478.5" y="-114.3" font-family="Times,serif" font-size="14.00">_LogCallable</text>
<polyline fill="none" stroke="black" points="470.5,-106.5 560.5,-106.5"/>
<polyline fill="none" stroke="black" points="470.5,-83.5 560.5,-83.5"/>
<text text-anchor="start" x="513.5" y="-68.3" font-family="Times,serif" font-size="14.00"> </text>
</g>
<!-- shoal.log._LogSingleton -->
<g id="node6" class="node">
<title>shoal.log._LogSingleton</title>
<polygon fill="none" stroke="black" points="467,-241.5 467,-325.5 564,-325.5 564,-241.5 467,-241.5"/>
<text text-anchor="start" x="475" y="-310.3" font-family="Times,serif" font-size="14.00">_LogSingleton</text>
<polyline fill="none" stroke="black" points="467,-302.5 564,-302.5"/>
<text text-anchor="start" x="506.5" y="-287.3" font-family="Times,serif" font-size="14.00">log</text>
<text text-anchor="start" x="506.5" y="-272.3" font-family="Times,serif" font-size="14.00">log</text>
<polyline fill="none" stroke="black" points="467,-264.5 564,-264.5"/>
<text text-anchor="start" x="513.5" y="-249.3" font-family="Times,serif" font-size="14.00"> </text>
</g>
<!-- shoal.log._LogCallable&#45;&gt;shoal.log._LogSingleton -->
<g id="edge3" class="edge">
<title>shoal.log._LogCallable&#45;&gt;shoal.log._LogSingleton</title>
<path fill="none" stroke="black" d="M515.5,-129.34C515.5,-156.97 515.5,-196.76 515.5,-228.86"/>
<polygon fill="black" stroke="black" points="515.5,-228.74 519.5,-234.74 515.5,-240.74 511.5,-234.74 515.5,-228.74"/>
<text text-anchor="middle" x="524.5" y="-211.8" font-family="Times,serif" font-size="14.00" fill="green">log</text>
</g>
<!-- shoal.log._Logger -->
<g id="node7" class="node">
<title>shoal.log._Logger</title>
<polygon fill="none" stroke="black" points="579,-0.5 579,-189.5 774,-189.5 774,-0.5 579,-0.5"/>
<text text-anchor="start" x="653.5" y="-174.3" font-family="Times,serif" font-size="14.00">_Logger</text>
<polyline fill="none" stroke="black" points="579,-166.5 774,-166.5"/>
<polyline fill="none" stroke="black" points="579,-143.5 774,-143.5"/>
<text text-anchor="start" x="587" y="-128.3" font-family="Times,serif" font-size="14.00">debug(message: str): None</text>
<text text-anchor="start" x="587" y="-113.3" font-family="Times,serif" font-size="14.00">error(message: str): None</text>
<text text-anchor="start" x="587" y="-98.3" font-family="Times,serif" font-size="14.00">exception(message: str): None</text>
<text text-anchor="start" x="587" y="-83.3" font-family="Times,serif" font-size="14.00">info(message: str): None</text>
<text text-anchor="start" x="587" y="-68.3" font-family="Times,serif" font-size="14.00">print(message: str): None</text>
<text text-anchor="start" x="587" y="-53.3" font-family="Times,serif" font-size="14.00">print_debug(message: str): None</text>
<text text-anchor="start" x="587" y="-38.3" font-family="Times,serif" font-size="14.00">text(message: str): None</text>
<text text-anchor="start" x="587" y="-23.3" font-family="Times,serif" font-size="14.00">text_debug(message: str): None</text>
<text text-anchor="start" x="587" y="-8.3" font-family="Times,serif" font-size="14.00">warning(message: str): None</text>
</g>
<!-- shoal.cli.start_program._ShoalConfig&#45;&gt;shoal.cli.ShoalConfig -->
<g id="edge1" class="edge">
<title>shoal.cli.start_program._ShoalConfig&#45;&gt;shoal.cli.ShoalConfig</title>
<path fill="none" stroke="black" d="M265.5,-317.95C265.5,-328.83 265.5,-341.08 265.5,-352.63"/>
<polygon fill="none" stroke="black" points="262,-352.36 265.5,-362.36 269,-352.36 262,-352.36"/>
</g>
<!-- shoal.cli._ShoalProgram -->
<g id="node9" class="node">
<title>shoal.cli._ShoalProgram</title>
<polygon fill="none" stroke="black" points="792.5,-60.5 792.5,-129.5 910.5,-129.5 910.5,-60.5 792.5,-60.5"/>
<text text-anchor="start" x="809" y="-114.3" font-family="Times,serif" font-size="14.00">_ShoalProgram</text>
<polyline fill="none" stroke="black" points="792.5,-106.5 910.5,-106.5"/>
<polyline fill="none" stroke="black" points="792.5,-83.5 910.5,-83.5"/>
<text text-anchor="start" x="800.5" y="-68.3" font-family="Times,serif" font-size="14.00">print_help(): None</text>
</g>
<!-- shoal.log._Styles -->
<g id="node10" class="node">
<title>shoal.log._Styles</title>
<polygon fill="none" stroke="black" points="929,-0.5 929,-189.5 1036,-189.5 1036,-0.5 929,-0.5"/>
<text text-anchor="start" x="962.5" y="-174.3" font-family="Times,serif" font-size="14.00">_Styles</text>
<polyline fill="none" stroke="black" points="929,-166.5 1036,-166.5"/>
<text text-anchor="start" x="937" y="-151.3" font-family="Times,serif" font-size="14.00">key : str</text>
<text text-anchor="start" x="937" y="-136.3" font-family="Times,serif" font-size="14.00">level_debug : str</text>
<text text-anchor="start" x="937" y="-121.3" font-family="Times,serif" font-size="14.00">level_error : str</text>
<text text-anchor="start" x="937" y="-106.3" font-family="Times,serif" font-size="14.00">level_info : str</text>
<text text-anchor="start" x="937" y="-91.3" font-family="Times,serif" font-size="14.00">level_lookup</text>
<text text-anchor="start" x="937" y="-76.3" font-family="Times,serif" font-size="14.00">level_warn : str</text>
<text text-anchor="start" x="937" y="-61.3" font-family="Times,serif" font-size="14.00">message : str</text>
<text text-anchor="start" x="937" y="-46.3" font-family="Times,serif" font-size="14.00">timestamp : str</text>
<text text-anchor="start" x="937" y="-31.3" font-family="Times,serif" font-size="14.00">value : str</text>
<polyline fill="none" stroke="black" points="929,-23.5 1036,-23.5"/>
<text text-anchor="start" x="980.5" y="-8.3" font-family="Times,serif" font-size="14.00"> </text>
</g>
</g>
</svg>
