<?xml version="1.0" encoding="UTF-8" standalone="no"?>
<!DOCTYPE svg PUBLIC "-//W3C//DTD SVG 1.1//EN"
 "http://www.w3.org/Graphics/SVG/1.1/DTD/svg11.dtd">
<!-- Generated by graphviz version 2.43.0 (0)
 -->
<!-- Title: packages Pages: 1 -->
<svg width="982pt" height="332pt"
 viewBox="0.00 0.00 981.50 332.00" xmlns="http://www.w3.org/2000/svg" xmlns:xlink="http://www.w3.org/1999/xlink">
<g id="graph0" class="graph" transform="scale(1 1) rotate(0) translate(4 328)">
<title>packages</title>
<polygon fill="white" stroke="transparent" points="-4,4 -4,-328 977.5,-328 977.5,4 -4,4"/>
<!-- shoal -->
<g id="node1" class="node">
<title>shoal</title>
<polygon fill="none" stroke="black" points="154,-36 100,-36 100,0 154,0 154,-36"/>
<text text-anchor="middle" x="127" y="-14.3" font-family="Times,serif" font-size="14.00">shoal</text>
</g>
<!-- shoal._runtime_type_check_setup -->
<g id="node2" class="node">
<title>shoal._runtime_type_check_setup</title>
<polygon fill="none" stroke="black" points="254,-108 0,-108 0,-72 254,-72 254,-108"/>
<text text-anchor="middle" x="127" y="-86.3" font-family="Times,serif" font-size="14.00">shoal._runtime_type_check_setup</text>
</g>
<!-- shoal&#45;&gt;shoal._runtime_type_check_setup -->
<g id="edge1" class="edge">
<title>shoal&#45;&gt;shoal._runtime_type_check_setup</title>
<path fill="none" stroke="black" d="M127,-36.3C127,-44.02 127,-53.29 127,-61.89"/>
<polygon fill="black" stroke="black" points="127,-71.9 122.5,-61.9 127,-66.9 127,-61.9 127,-61.9 127,-61.9 127,-66.9 131.5,-61.9 127,-71.9 127,-71.9"/>
</g>
<!-- shoal.dev_boards -->
<g id="node3" class="node">
<title>shoal.dev_boards</title>
<polygon fill="none" stroke="black" points="370,-36 230,-36 230,0 370,0 370,-36"/>
<text text-anchor="middle" x="300" y="-14.3" font-family="Times,serif" font-size="14.00">shoal.dev_boards</text>
</g>
<!-- shoal.dev_boards.cli -->
<g id="node4" class="node">
<title>shoal.dev_boards.cli</title>
<polygon fill="none" stroke="black" points="433.5,-108 272.5,-108 272.5,-72 433.5,-72 433.5,-108"/>
<text text-anchor="middle" x="353" y="-86.3" font-family="Times,serif" font-size="14.00">shoal.dev_boards.cli</text>
</g>
<!-- shoal.dev_boards.merge -->
<g id="node5" class="node">
<title>shoal.dev_boards.merge</title>
<polygon fill="none" stroke="black" points="848,-36 658,-36 658,0 848,0 848,-36"/>
<text text-anchor="middle" x="753" y="-14.3" font-family="Times,serif" font-size="14.00">shoal.dev_boards.merge</text>
</g>
<!-- shoal.dev_boards.merge.app -->
<g id="node6" class="node">
<title>shoal.dev_boards.merge.app</title>
<polygon fill="none" stroke="black" points="886.5,-180 665.5,-180 665.5,-144 886.5,-144 886.5,-180"/>
<text text-anchor="middle" x="776" y="-158.3" font-family="Times,serif" font-size="14.00">shoal.dev_boards.merge.app</text>
</g>
<!-- shoal.dev_boards.merge.gh_wrapper -->
<g id="node8" class="node">
<title>shoal.dev_boards.merge.gh_wrapper</title>
<polygon fill="none" stroke="black" points="915.5,-252 636.5,-252 636.5,-216 915.5,-216 915.5,-252"/>
<text text-anchor="middle" x="776" y="-230.3" font-family="Times,serif" font-size="14.00">shoal.dev_boards.merge.gh_wrapper</text>
</g>
<!-- shoal.dev_boards.merge.app&#45;&gt;shoal.dev_boards.merge.gh_wrapper -->
<g id="edge2" class="edge">
<title>shoal.dev_boards.merge.app&#45;&gt;shoal.dev_boards.merge.gh_wrapper</title>
<path fill="none" stroke="black" d="M776,-180.3C776,-188.02 776,-197.29 776,-205.89"/>
<polygon fill="black" stroke="black" points="776,-215.9 771.5,-205.9 776,-210.9 776,-205.9 776,-205.9 776,-205.9 776,-210.9 780.5,-205.9 776,-215.9 776,-215.9"/>
</g>
<!-- shoal.dev_boards.merge.config -->
<g id="node7" class="node">
<title>shoal.dev_boards.merge.config</title>
<polygon fill="none" stroke="black" points="894.5,-324 657.5,-324 657.5,-288 894.5,-288 894.5,-324"/>
<text text-anchor="middle" x="776" y="-302.3" font-family="Times,serif" font-size="14.00">shoal.dev_boards.merge.config</text>
</g>
<!-- shoal.dev_boards.merge.gh_wrapper&#45;&gt;shoal.dev_boards.merge.config -->
<g id="edge3" class="edge">
<title>shoal.dev_boards.merge.gh_wrapper&#45;&gt;shoal.dev_boards.merge.config</title>
<path fill="none" stroke="black" d="M776,-252.3C776,-260.02 776,-269.29 776,-277.89"/>
<polygon fill="black" stroke="black" points="776,-287.9 771.5,-277.9 776,-282.9 776,-277.9 776,-277.9 776,-277.9 776,-282.9 780.5,-277.9 776,-287.9 776,-287.9"/>
</g>
<!-- shoal.dev_boards.scripts -->
<g id="node9" class="node">
<title>shoal.dev_boards.scripts</title>
<polygon fill="none" stroke="black" points="639.5,-36 446.5,-36 446.5,0 639.5,0 639.5,-36"/>
<text text-anchor="middle" x="543" y="-14.3" font-family="Times,serif" font-size="14.00">shoal.dev_boards.scripts</text>
</g>
<!-- shoal.dev_boards.scripts&#45;&gt;shoal.dev_boards.cli -->
<g id="edge4" class="edge">
<title>shoal.dev_boards.scripts&#45;&gt;shoal.dev_boards.cli</title>
<path fill="none" stroke="black" d="M496.52,-36.12C470.08,-45.86 436.8,-58.13 408.94,-68.39"/>
<polygon fill="black" stroke="black" points="399.33,-71.93 407.16,-64.25 404.02,-70.2 408.71,-68.47 408.71,-68.47 408.71,-68.47 404.02,-70.2 410.27,-72.7 399.33,-71.93 399.33,-71.93"/>
</g>
<!-- shoal.dev_boards.tasks -->
<g id="node10" class="node">
<title>shoal.dev_boards.tasks</title>
<polygon fill="none" stroke="black" points="634,-108 452,-108 452,-72 634,-72 634,-108"/>
<text text-anchor="middle" x="543" y="-86.3" font-family="Times,serif" font-size="14.00">shoal.dev_boards.tasks</text>
</g>
<!-- shoal.dev_boards.scripts&#45;&gt;shoal.dev_boards.tasks -->
<g id="edge5" class="edge">
<title>shoal.dev_boards.scripts&#45;&gt;shoal.dev_boards.tasks</title>
<path fill="none" stroke="black" d="M543,-36.3C543,-44.02 543,-53.29 543,-61.89"/>
<polygon fill="black" stroke="black" points="543,-71.9 538.5,-61.9 543,-66.9 543,-61.9 543,-61.9 543,-61.9 543,-66.9 547.5,-61.9 543,-71.9 543,-71.9"/>
</g>
<!-- shoal.dev_boards.tasks.all_tasks -->
<g id="node11" class="node">
<title>shoal.dev_boards.tasks.all_tasks</title>
<polygon fill="none" stroke="black" points="900,-108 652,-108 652,-72 900,-72 900,-108"/>
<text text-anchor="middle" x="776" y="-86.3" font-family="Times,serif" font-size="14.00">shoal.dev_boards.tasks.all_tasks</text>
</g>
<!-- shoal.dev_boards.scripts&#45;&gt;shoal.dev_boards.tasks.all_tasks -->
<g id="edge6" class="edge">
<title>shoal.dev_boards.scripts&#45;&gt;shoal.dev_boards.tasks.all_tasks</title>
<path fill="none" stroke="black" d="M599.7,-36.03C632.68,-45.94 674.43,-58.49 709.03,-68.88"/>
<polygon fill="black" stroke="black" points="719.05,-71.89 708.17,-73.32 714.26,-70.45 709.47,-69.01 709.47,-69.01 709.47,-69.01 714.26,-70.45 710.76,-64.7 719.05,-71.89 719.05,-71.89"/>
</g>
<!-- shoal.dev_boards.tasks.all_tasks&#45;&gt;shoal.dev_boards.merge.app -->
<g id="edge7" class="edge">
<title>shoal.dev_boards.tasks.all_tasks&#45;&gt;shoal.dev_boards.merge.app</title>
<path fill="none" stroke="black" d="M776,-108.3C776,-116.02 776,-125.29 776,-133.89"/>
<polygon fill="black" stroke="black" points="776,-143.9 771.5,-133.9 776,-138.9 776,-133.9 776,-133.9 776,-133.9 776,-138.9 780.5,-133.9 776,-143.9 776,-143.9"/>
</g>
<!-- shoal.scripts -->
<g id="node12" class="node">
<title>shoal.scripts</title>
<polygon fill="none" stroke="black" points="973.5,-36 866.5,-36 866.5,0 973.5,0 973.5,-36"/>
<text text-anchor="middle" x="920" y="-14.3" font-family="Times,serif" font-size="14.00">shoal.scripts</text>
</g>
</g>
</svg>
