<?xml version="1.0" encoding="UTF-8" standalone="no"?>
<!DOCTYPE svg PUBLIC "-//W3C//DTD SVG 1.1//EN"
 "http://www.w3.org/Graphics/SVG/1.1/DTD/svg11.dtd">
<!-- Generated by graphviz version 7.1.0 (20230121.1956)
 -->
<!-- Title: packages Pages: 1 -->
<svg width="511pt" height="116pt"
 viewBox="0.00 0.00 511.00 116.00" xmlns="http://www.w3.org/2000/svg" xmlns:xlink="http://www.w3.org/1999/xlink">
<g id="graph0" class="graph" transform="scale(1 1) rotate(0) translate(4 112)">
<title>packages</title>
<polygon fill="white" stroke="none" points="-4,4 -4,-112 507,-112 507,4 -4,4"/>
<!-- shoal -->
<g id="node1" class="node">
<title>shoal</title>
<polygon fill="none" stroke="black" points="54,-36 0,-36 0,0 54,0 54,-36"/>
<text text-anchor="middle" x="27" y="-14.3" font-family="Times,serif" font-size="14.00">shoal</text>
</g>
<!-- shoal.can_skip -->
<g id="node2" class="node">
<title>shoal.can_skip</title>
<polygon fill="none" stroke="black" points="169.5,-36 72.5,-36 72.5,0 169.5,0 169.5,-36"/>
<text text-anchor="middle" x="121" y="-14.3" font-family="Times,serif" font-size="14.00">shoal.can_skip</text>
</g>
<!-- shoal.log -->
<g id="node5" class="node">
<title>shoal.log</title>
<polygon fill="none" stroke="black" points="250,-108 184,-108 184,-72 250,-72 250,-108"/>
<text text-anchor="middle" x="217" y="-86.3" font-family="Times,serif" font-size="14.00">shoal.log</text>
</g>
<!-- shoal.can_skip&#45;&gt;shoal.log -->
<g id="edge1" class="edge">
<title>shoal.can_skip&#45;&gt;shoal.log</title>
<path fill="none" stroke="black" d="M144.73,-36.3C156.96,-45.22 172.05,-56.22 185.26,-65.86"/>
<polygon fill="black" stroke="black" points="193.21,-71.65 182.48,-69.4 189.17,-68.71 185.13,-65.76 185.13,-65.76 185.13,-65.76 189.17,-68.71 187.78,-62.13 193.21,-71.65 193.21,-71.65"/>
</g>
<!-- shoal.cli -->
<g id="node3" class="node">
<title>shoal.cli</title>
<polygon fill="none" stroke="black" points="357,-36 295,-36 295,0 357,0 357,-36"/>
<text text-anchor="middle" x="326" y="-14.3" font-family="Times,serif" font-size="14.00">shoal.cli</text>
</g>
<!-- shoal.invoke_helpers -->
<g id="node4" class="node">
<title>shoal.invoke_helpers</title>
<polygon fill="none" stroke="black" points="399.5,-108 268.5,-108 268.5,-72 399.5,-72 399.5,-108"/>
<text text-anchor="middle" x="334" y="-86.3" font-family="Times,serif" font-size="14.00">shoal.invoke_helpers</text>
</g>
<!-- shoal.cli&#45;&gt;shoal.invoke_helpers -->
<g id="edge2" class="edge">
<title>shoal.cli&#45;&gt;shoal.invoke_helpers</title>
<path fill="none" stroke="black" d="M327.98,-36.3C328.87,-44.1 329.94,-53.49 330.93,-62.17"/>
<polygon fill="black" stroke="black" points="332.05,-71.9 326.44,-62.47 331.48,-66.93 330.91,-61.96 330.91,-61.96 330.91,-61.96 331.48,-66.93 335.38,-61.45 332.05,-71.9 332.05,-71.9"/>
</g>
<!-- shoal.cli&#45;&gt;shoal.log -->
<g id="edge3" class="edge">
<title>shoal.cli&#45;&gt;shoal.log</title>
<path fill="none" stroke="black" d="M298.78,-36.48C284.62,-45.57 267.17,-56.78 252.02,-66.51"/>
<polygon fill="black" stroke="black" points="243.88,-71.74 249.86,-62.55 248.08,-69.04 252.29,-66.34 252.29,-66.34 252.29,-66.34 248.08,-69.04 254.72,-70.12 243.88,-71.74 243.88,-71.74"/>
</g>
<!-- shoal.pretty_process -->
<g id="node6" class="node">
<title>shoal.pretty_process</title>
<polygon fill="none" stroke="black" points="503,-36 375,-36 375,0 503,0 503,-36"/>
<text text-anchor="middle" x="439" y="-14.3" font-family="Times,serif" font-size="14.00">shoal.pretty_process</text>
</g>
<!-- shoal.shell -->
<g id="node7" class="node">
<title>shoal.shell</title>
<polygon fill="none" stroke="black" points="262,-36 188,-36 188,0 262,0 262,-36"/>
<text text-anchor="middle" x="225" y="-14.3" font-family="Times,serif" font-size="14.00">shoal.shell</text>
</g>
<!-- shoal.shell&#45;&gt;shoal.log -->
<g id="edge4" class="edge">
<title>shoal.shell&#45;&gt;shoal.log</title>
<path fill="none" stroke="black" d="M223.02,-36.3C222.13,-44.1 221.06,-53.49 220.07,-62.17"/>
<polygon fill="black" stroke="black" points="218.95,-71.9 215.62,-61.45 219.52,-66.93 220.09,-61.96 220.09,-61.96 220.09,-61.96 219.52,-66.93 224.56,-62.47 218.95,-71.9 218.95,-71.9"/>
</g>
</g>
</svg>
