<?xml version="1.0" encoding="UTF-8" standalone="no"?>
<!DOCTYPE svg PUBLIC "-//W3C//DTD SVG 1.1//EN"
 "http://www.w3.org/Graphics/SVG/1.1/DTD/svg11.dtd">
<!-- Generated by graphviz version 7.1.0 (20230121.1956)
 -->
<!-- Title: packages Pages: 1 -->
<svg width="354pt" height="188pt"
 viewBox="0.00 0.00 354.00 188.00" xmlns="http://www.w3.org/2000/svg" xmlns:xlink="http://www.w3.org/1999/xlink">
<g id="graph0" class="graph" transform="scale(1 1) rotate(0) translate(4 184)">
<title>packages</title>
<polygon fill="white" stroke="none" points="-4,4 -4,-184 350,-184 350,4 -4,4"/>
<!-- shoal -->
<g id="node1" class="node">
<title>shoal</title>
<polygon fill="none" stroke="black" points="54,-36 0,-36 0,0 54,0 54,-36"/>
<text text-anchor="middle" x="27" y="-14.3" font-family="Times,serif" font-size="14.00">shoal</text>
</g>
<!-- shoal._private -->
<g id="node2" class="node">
<title>shoal._private</title>
<polygon fill="none" stroke="black" points="165.5,-36 72.5,-36 72.5,0 165.5,0 165.5,-36"/>
<text text-anchor="middle" x="119" y="-14.3" font-family="Times,serif" font-size="14.00">shoal._private</text>
</g>
<!-- shoal._private.cli -->
<g id="node3" class="node">
<title>shoal._private.cli</title>
<polygon fill="none" stroke="black" points="218,-108 108,-108 108,-72 218,-72 218,-108"/>
<text text-anchor="middle" x="163" y="-86.3" font-family="Times,serif" font-size="14.00">shoal._private.cli</text>
</g>
<!-- shoal.ling -->
<g id="node4" class="node">
<title>shoal.ling</title>
<polygon fill="none" stroke="black" points="254,-36 184,-36 184,0 254,0 254,-36"/>
<text text-anchor="middle" x="219" y="-14.3" font-family="Times,serif" font-size="14.00">shoal.ling</text>
</g>
<!-- shoal.ling&#45;&gt;shoal._private.cli -->
<g id="edge1" class="edge">
<title>shoal.ling&#45;&gt;shoal._private.cli</title>
<path fill="none" stroke="black" d="M205.16,-36.3C198.44,-44.7 190.26,-54.93 182.89,-64.14"/>
<polygon fill="black" stroke="black" points="176.68,-71.9 179.42,-61.28 179.81,-67.99 182.93,-64.09 182.93,-64.09 182.93,-64.09 179.81,-67.99 186.44,-66.9 176.68,-71.9 176.68,-71.9"/>
</g>
<!-- shoal.tangs -->
<g id="node7" class="node">
<title>shoal.tangs</title>
<polygon fill="none" stroke="black" points="313.5,-108 236.5,-108 236.5,-72 313.5,-72 313.5,-108"/>
<text text-anchor="middle" x="275" y="-86.3" font-family="Times,serif" font-size="14.00">shoal.tangs</text>
</g>
<!-- shoal.ling&#45;&gt;shoal.tangs -->
<g id="edge2" class="edge">
<title>shoal.ling&#45;&gt;shoal.tangs</title>
<path fill="none" stroke="black" d="M232.84,-36.3C239.56,-44.7 247.74,-54.93 255.11,-64.14"/>
<polygon fill="black" stroke="black" points="261.32,-71.9 251.56,-66.9 258.19,-67.99 255.07,-64.09 255.07,-64.09 255.07,-64.09 258.19,-67.99 258.58,-61.28 261.32,-71.9 261.32,-71.9"/>
</g>
<!-- shoal.shell -->
<g id="node5" class="node">
<title>shoal.shell</title>
<polygon fill="none" stroke="black" points="346,-36 272,-36 272,0 346,0 346,-36"/>
<text text-anchor="middle" x="309" y="-14.3" font-family="Times,serif" font-size="14.00">shoal.shell</text>
</g>
<!-- shoal.tang -->
<g id="node6" class="node">
<title>shoal.tang</title>
<polygon fill="none" stroke="black" points="311,-180 239,-180 239,-144 311,-144 311,-180"/>
<text text-anchor="middle" x="275" y="-158.3" font-family="Times,serif" font-size="14.00">shoal.tang</text>
</g>
<!-- shoal.tangs&#45;&gt;shoal.tang -->
<g id="edge3" class="edge">
<title>shoal.tangs&#45;&gt;shoal.tang</title>
<path fill="none" stroke="black" d="M275,-108.3C275,-116.1 275,-125.49 275,-134.17"/>
<polygon fill="black" stroke="black" points="275,-143.9 270.5,-133.9 275,-138.9 275,-133.9 275,-133.9 275,-133.9 275,-138.9 279.5,-133.9 275,-143.9 275,-143.9"/>
</g>
</g>
</svg>
