<?xml version="1.0" encoding="UTF-8" standalone="no"?>
<!DOCTYPE svg PUBLIC "-//W3C//DTD SVG 1.1//EN"
 "http://www.w3.org/Graphics/SVG/1.1/DTD/svg11.dtd">
<!-- Generated by graphviz version 7.1.0 (20230121.1956)
 -->
<!-- Title: packages Pages: 1 -->
<svg width="319pt" height="404pt"
 viewBox="0.00 0.00 318.50 404.00" xmlns="http://www.w3.org/2000/svg" xmlns:xlink="http://www.w3.org/1999/xlink">
<g id="graph0" class="graph" transform="scale(1 1) rotate(0) translate(4 400)">
<title>packages</title>
<polygon fill="white" stroke="none" points="-4,4 -4,-400 314.5,-400 314.5,4 -4,4"/>
<!-- shoal -->
<g id="node1" class="node">
<title>shoal</title>
<polygon fill="none" stroke="black" points="165,-36 111,-36 111,0 165,0 165,-36"/>
<text text-anchor="middle" x="138" y="-14.3" font-family="Times,serif" font-size="14.00">shoal</text>
</g>
<!-- shoal._ling -->
<g id="node3" class="node">
<title>shoal._ling</title>
<polygon fill="none" stroke="black" points="310.5,-108 233.5,-108 233.5,-72 310.5,-72 310.5,-108"/>
<text text-anchor="middle" x="272" y="-86.3" font-family="Times,serif" font-size="14.00">shoal._ling</text>
</g>
<!-- shoal&#45;&gt;shoal._ling -->
<g id="edge1" class="edge">
<title>shoal&#45;&gt;shoal._ling</title>
<path fill="none" stroke="black" d="M165.44,-33.33C184.07,-43.06 209.05,-56.11 230.14,-67.13"/>
<polygon fill="black" stroke="black" points="238.91,-71.71 227.96,-71.07 234.48,-69.4 230.05,-67.08 230.05,-67.08 230.05,-67.08 234.48,-69.4 232.13,-63.1 238.91,-71.71 238.91,-71.71"/>
</g>
<!-- shoal._log -->
<g id="node4" class="node">
<title>shoal._log</title>
<polygon fill="none" stroke="black" points="175.5,-396 102.5,-396 102.5,-360 175.5,-360 175.5,-396"/>
<text text-anchor="middle" x="139" y="-374.3" font-family="Times,serif" font-size="14.00">shoal._log</text>
</g>
<!-- shoal&#45;&gt;shoal._log -->
<g id="edge2" class="edge">
<title>shoal&#45;&gt;shoal._log</title>
<path fill="none" stroke="black" d="M110.74,-31.71C70.52,-52.56 0,-98.09 0,-161 0,-161 0,-161 0,-235 0,-289.64 53.2,-331.02 93.78,-354.64"/>
<polygon fill="black" stroke="black" points="102.48,-359.55 91.56,-358.55 98.12,-357.09 93.77,-354.63 93.77,-354.63 93.77,-354.63 98.12,-357.09 95.98,-350.71 102.48,-359.55 102.48,-359.55"/>
</g>
<!-- shoal._shell -->
<g id="node5" class="node">
<title>shoal._shell</title>
<polygon fill="none" stroke="black" points="109.5,-180 28.5,-180 28.5,-144 109.5,-144 109.5,-180"/>
<text text-anchor="middle" x="69" y="-158.3" font-family="Times,serif" font-size="14.00">shoal._shell</text>
</g>
<!-- shoal&#45;&gt;shoal._shell -->
<g id="edge3" class="edge">
<title>shoal&#45;&gt;shoal._shell</title>
<path fill="none" stroke="black" d="M129.54,-36.41C117.52,-61.14 95.44,-106.59 81.52,-135.23"/>
<polygon fill="black" stroke="black" points="77.31,-143.89 77.64,-132.93 79.5,-139.39 81.68,-134.89 81.68,-134.89 81.68,-134.89 79.5,-139.39 85.73,-136.86 77.31,-143.89 77.31,-143.89"/>
</g>
<!-- shoal._tang -->
<g id="node6" class="node">
<title>shoal._tang</title>
<polygon fill="none" stroke="black" points="178.5,-324 99.5,-324 99.5,-288 178.5,-288 178.5,-324"/>
<text text-anchor="middle" x="139" y="-302.3" font-family="Times,serif" font-size="14.00">shoal._tang</text>
</g>
<!-- shoal&#45;&gt;shoal._tang -->
<g id="edge4" class="edge">
<title>shoal&#45;&gt;shoal._tang</title>
<path fill="none" stroke="black" d="M138.06,-36.46C138.23,-84.64 138.7,-219.73 138.91,-277.85"/>
<polygon fill="black" stroke="black" points="138.94,-287.77 134.4,-277.78 138.92,-282.77 138.9,-277.77 138.9,-277.77 138.9,-277.77 138.92,-282.77 143.4,-277.75 138.94,-287.77 138.94,-287.77"/>
</g>
<!-- shoal._tangs -->
<g id="node7" class="node">
<title>shoal._tangs</title>
<polygon fill="none" stroke="black" points="250,-252 166,-252 166,-216 250,-216 250,-252"/>
<text text-anchor="middle" x="208" y="-230.3" font-family="Times,serif" font-size="14.00">shoal._tangs</text>
</g>
<!-- shoal&#45;&gt;shoal._tangs -->
<g id="edge5" class="edge">
<title>shoal&#45;&gt;shoal._tangs</title>
<path fill="none" stroke="black" d="M143.61,-36.15C155.8,-73.4 184.75,-161.93 199.32,-206.46"/>
<polygon fill="black" stroke="black" points="202.36,-215.77 194.98,-207.66 200.81,-211.02 199.25,-206.26 199.25,-206.26 199.25,-206.26 200.81,-211.02 203.53,-204.86 202.36,-215.77 202.36,-215.77"/>
</g>
<!-- shoal._cli -->
<g id="node2" class="node">
<title>shoal._cli</title>
<polygon fill="none" stroke="black" points="273.5,-180 204.5,-180 204.5,-144 273.5,-144 273.5,-180"/>
<text text-anchor="middle" x="239" y="-158.3" font-family="Times,serif" font-size="14.00">shoal._cli</text>
</g>
<!-- shoal._cli&#45;&gt;shoal._tangs -->
<g id="edge6" class="edge">
<title>shoal._cli&#45;&gt;shoal._tangs</title>
<path fill="none" stroke="black" d="M231.34,-180.3C227.77,-188.36 223.45,-198.11 219.51,-207.02"/>
<polygon fill="black" stroke="black" points="215.57,-215.9 215.51,-204.93 217.6,-211.32 219.62,-206.75 219.62,-206.75 219.62,-206.75 217.6,-211.32 223.74,-208.57 215.57,-215.9 215.57,-215.9"/>
</g>
<!-- shoal._ling&#45;&gt;shoal._cli -->
<g id="edge7" class="edge">
<title>shoal._ling&#45;&gt;shoal._cli</title>
<path fill="none" stroke="black" d="M263.84,-108.3C260.05,-116.36 255.45,-126.11 251.25,-135.02"/>
<polygon fill="black" stroke="black" points="247.06,-143.9 247.26,-132.93 249.2,-139.37 251.33,-134.85 251.33,-134.85 251.33,-134.85 249.2,-139.37 255.4,-136.77 247.06,-143.9 247.06,-143.9"/>
</g>
<!-- shoal._ling&#45;&gt;shoal._log -->
<g id="edge8" class="edge">
<title>shoal._ling&#45;&gt;shoal._log</title>
<path fill="none" stroke="black" d="M283.89,-108.28C290.01,-118.24 296.84,-131.27 300,-144 303.85,-159.53 304.1,-164.53 300,-180 280.56,-253.42 260.65,-269.27 208,-324 197.62,-334.79 184.93,-345.17 173.28,-353.84"/>
<polygon fill="black" stroke="black" points="165.42,-359.55 170.87,-350.03 169.47,-356.61 173.51,-353.67 173.51,-353.67 173.51,-353.67 169.47,-356.61 176.16,-357.31 165.42,-359.55 165.42,-359.55"/>
</g>
<!-- shoal._ling&#45;&gt;shoal._tangs -->
<g id="edge9" class="edge">
<title>shoal._ling&#45;&gt;shoal._tangs</title>
<path fill="none" stroke="black" d="M279.79,-108.44C286.92,-127.18 294.74,-157.33 283,-180 276.63,-192.3 265.94,-202.36 254.6,-210.28"/>
<polygon fill="black" stroke="black" points="246.28,-215.67 252.22,-206.46 250.47,-212.95 254.67,-210.23 254.67,-210.23 254.67,-210.23 250.47,-212.95 257.12,-214.01 246.28,-215.67 246.28,-215.67"/>
</g>
<!-- shoal._shell&#45;&gt;shoal._log -->
<g id="edge10" class="edge">
<title>shoal._shell&#45;&gt;shoal._log</title>
<path fill="none" stroke="black" d="M67.92,-180.4C66.73,-210.99 67.41,-275.75 90,-324 94.93,-334.53 102.73,-344.39 110.66,-352.69"/>
<polygon fill="black" stroke="black" points="117.61,-359.55 107.33,-355.72 114.05,-356.03 110.49,-352.52 110.49,-352.52 110.49,-352.52 114.05,-356.03 113.66,-349.32 117.61,-359.55 117.61,-359.55"/>
</g>
<!-- shoal._tang&#45;&gt;shoal._log -->
<g id="edge11" class="edge">
<title>shoal._tang&#45;&gt;shoal._log</title>
<path fill="none" stroke="black" d="M139,-324.3C139,-332.1 139,-341.49 139,-350.17"/>
<polygon fill="black" stroke="black" points="139,-359.9 134.5,-349.9 139,-354.9 139,-349.9 139,-349.9 139,-349.9 139,-354.9 143.5,-349.9 139,-359.9 139,-359.9"/>
</g>
<!-- shoal._tangs&#45;&gt;shoal._log -->
<g id="edge12" class="edge">
<title>shoal._tangs&#45;&gt;shoal._log</title>
<path fill="none" stroke="black" d="M206.79,-252.31C204.89,-270.95 200.08,-301.01 188,-324 182.5,-334.47 174.4,-344.42 166.36,-352.81"/>
<polygon fill="black" stroke="black" points="159.38,-359.76 163.29,-349.52 162.92,-356.24 166.47,-352.71 166.47,-352.71 166.47,-352.71 162.92,-356.24 169.64,-355.9 159.38,-359.76 159.38,-359.76"/>
</g>
<!-- shoal._tangs&#45;&gt;shoal._tang -->
<g id="edge13" class="edge">
<title>shoal._tangs&#45;&gt;shoal._tang</title>
<path fill="none" stroke="black" d="M190.94,-252.3C182.42,-260.95 171.97,-271.55 162.68,-280.97"/>
<polygon fill="black" stroke="black" points="155.86,-287.9 159.68,-277.61 159.37,-284.33 162.88,-280.77 162.88,-280.77 162.88,-280.77 159.37,-284.33 166.08,-283.93 155.86,-287.9 155.86,-287.9"/>
</g>
</g>
</svg>
