<?xml version="1.0" encoding="UTF-8" standalone="no"?>
<!DOCTYPE svg PUBLIC "-//W3C//DTD SVG 1.1//EN"
 "http://www.w3.org/Graphics/SVG/1.1/DTD/svg11.dtd">
<!-- Generated by graphviz version 2.43.0 (0)
 -->
<!-- Title: packages Pages: 1 -->
<svg width="1086pt" height="188pt"
 viewBox="0.00 0.00 1085.50 188.00" xmlns="http://www.w3.org/2000/svg" xmlns:xlink="http://www.w3.org/1999/xlink">
<g id="graph0" class="graph" transform="scale(1 1) rotate(0) translate(4 184)">
<title>packages</title>
<polygon fill="white" stroke="transparent" points="-4,4 -4,-184 1081.5,-184 1081.5,4 -4,4"/>
<!-- shoal -->
<g id="node1" class="node">
<title>shoal</title>
<polygon fill="none" stroke="black" points="54,-36 0,-36 0,0 54,0 54,-36"/>
<text text-anchor="middle" x="27" y="-14.3" font-family="Times,serif" font-size="14.00">shoal</text>
</g>
<!-- shoal.dev_boards -->
<g id="node2" class="node">
<title>shoal.dev_boards</title>
<polygon fill="none" stroke="black" points="212,-36 72,-36 72,0 212,0 212,-36"/>
<text text-anchor="middle" x="142" y="-14.3" font-family="Times,serif" font-size="14.00">shoal.dev_boards</text>
</g>
<!-- shoal.dev_boards.cli -->
<g id="node3" class="node">
<title>shoal.dev_boards.cli</title>
<polygon fill="none" stroke="black" points="217.5,-108 56.5,-108 56.5,-72 217.5,-72 217.5,-108"/>
<text text-anchor="middle" x="137" y="-86.3" font-family="Times,serif" font-size="14.00">shoal.dev_boards.cli</text>
</g>
<!-- shoal.dev_boards.merge -->
<g id="node4" class="node">
<title>shoal.dev_boards.merge</title>
<polygon fill="none" stroke="black" points="673,-36 483,-36 483,0 673,0 673,-36"/>
<text text-anchor="middle" x="578" y="-14.3" font-family="Times,serif" font-size="14.00">shoal.dev_boards.merge</text>
</g>
<!-- shoal.dev_boards.merge.app -->
<g id="node5" class="node">
<title>shoal.dev_boards.merge.app</title>
<polygon fill="none" stroke="black" points="952.5,-36 731.5,-36 731.5,0 952.5,0 952.5,-36"/>
<text text-anchor="middle" x="842" y="-14.3" font-family="Times,serif" font-size="14.00">shoal.dev_boards.merge.app</text>
</g>
<!-- shoal.dev_boards.merge.gh_wrapper -->
<g id="node7" class="node">
<title>shoal.dev_boards.merge.gh_wrapper</title>
<polygon fill="none" stroke="black" points="981.5,-108 702.5,-108 702.5,-72 981.5,-72 981.5,-108"/>
<text text-anchor="middle" x="842" y="-86.3" font-family="Times,serif" font-size="14.00">shoal.dev_boards.merge.gh_wrapper</text>
</g>
<!-- shoal.dev_boards.merge.app&#45;&gt;shoal.dev_boards.merge.gh_wrapper -->
<g id="edge1" class="edge">
<title>shoal.dev_boards.merge.app&#45;&gt;shoal.dev_boards.merge.gh_wrapper</title>
<path fill="none" stroke="black" d="M842,-36.3C842,-44.02 842,-53.29 842,-61.89"/>
<polygon fill="black" stroke="black" points="842,-71.9 837.5,-61.9 842,-66.9 842,-61.9 842,-61.9 842,-61.9 842,-66.9 846.5,-61.9 842,-71.9 842,-71.9"/>
</g>
<!-- shoal.dev_boards.merge.config -->
<g id="node6" class="node">
<title>shoal.dev_boards.merge.config</title>
<polygon fill="none" stroke="black" points="960.5,-180 723.5,-180 723.5,-144 960.5,-144 960.5,-180"/>
<text text-anchor="middle" x="842" y="-158.3" font-family="Times,serif" font-size="14.00">shoal.dev_boards.merge.config</text>
</g>
<!-- shoal.dev_boards.merge.gh_wrapper&#45;&gt;shoal.dev_boards.merge.config -->
<g id="edge2" class="edge">
<title>shoal.dev_boards.merge.gh_wrapper&#45;&gt;shoal.dev_boards.merge.config</title>
<path fill="none" stroke="black" d="M842,-108.3C842,-116.02 842,-125.29 842,-133.89"/>
<polygon fill="black" stroke="black" points="842,-143.9 837.5,-133.9 842,-138.9 842,-133.9 842,-133.9 842,-133.9 842,-138.9 846.5,-133.9 842,-143.9 842,-143.9"/>
</g>
<!-- shoal.dev_boards.scripts -->
<g id="node8" class="node">
<title>shoal.dev_boards.scripts</title>
<polygon fill="none" stroke="black" points="423.5,-36 230.5,-36 230.5,0 423.5,0 423.5,-36"/>
<text text-anchor="middle" x="327" y="-14.3" font-family="Times,serif" font-size="14.00">shoal.dev_boards.scripts</text>
</g>
<!-- shoal.dev_boards.scripts&#45;&gt;shoal.dev_boards.cli -->
<g id="edge3" class="edge">
<title>shoal.dev_boards.scripts&#45;&gt;shoal.dev_boards.cli</title>
<path fill="none" stroke="black" d="M280.52,-36.12C254.08,-45.86 220.8,-58.13 192.94,-68.39"/>
<polygon fill="black" stroke="black" points="183.33,-71.93 191.16,-64.25 188.02,-70.2 192.71,-68.47 192.71,-68.47 192.71,-68.47 188.02,-70.2 194.27,-72.7 183.33,-71.93 183.33,-71.93"/>
</g>
<!-- shoal.dev_boards.tasks -->
<g id="node9" class="node">
<title>shoal.dev_boards.tasks</title>
<polygon fill="none" stroke="black" points="418,-108 236,-108 236,-72 418,-72 418,-108"/>
<text text-anchor="middle" x="327" y="-86.3" font-family="Times,serif" font-size="14.00">shoal.dev_boards.tasks</text>
</g>
<!-- shoal.dev_boards.scripts&#45;&gt;shoal.dev_boards.tasks -->
<g id="edge4" class="edge">
<title>shoal.dev_boards.scripts&#45;&gt;shoal.dev_boards.tasks</title>
<path fill="none" stroke="black" d="M327,-36.3C327,-44.02 327,-53.29 327,-61.89"/>
<polygon fill="black" stroke="black" points="327,-71.9 322.5,-61.9 327,-66.9 327,-61.9 327,-61.9 327,-61.9 327,-66.9 331.5,-61.9 327,-71.9 327,-71.9"/>
</g>
<!-- shoal.dev_boards.tasks.all_tasks -->
<g id="node10" class="node">
<title>shoal.dev_boards.tasks.all_tasks</title>
<polygon fill="none" stroke="black" points="684,-108 436,-108 436,-72 684,-72 684,-108"/>
<text text-anchor="middle" x="560" y="-86.3" font-family="Times,serif" font-size="14.00">shoal.dev_boards.tasks.all_tasks</text>
</g>
<!-- shoal.dev_boards.scripts&#45;&gt;shoal.dev_boards.tasks.all_tasks -->
<g id="edge5" class="edge">
<title>shoal.dev_boards.scripts&#45;&gt;shoal.dev_boards.tasks.all_tasks</title>
<path fill="none" stroke="black" d="M383.7,-36.03C416.68,-45.94 458.43,-58.49 493.03,-68.88"/>
<polygon fill="black" stroke="black" points="503.05,-71.89 492.17,-73.32 498.26,-70.45 493.47,-69.01 493.47,-69.01 493.47,-69.01 498.26,-70.45 494.76,-64.7 503.05,-71.89 503.05,-71.89"/>
</g>
<!-- shoal.scripts -->
<g id="node11" class="node">
<title>shoal.scripts</title>
<polygon fill="none" stroke="black" points="1077.5,-36 970.5,-36 970.5,0 1077.5,0 1077.5,-36"/>
<text text-anchor="middle" x="1024" y="-14.3" font-family="Times,serif" font-size="14.00">shoal.scripts</text>
</g>
</g>
</svg>
