<?xml version="1.0" encoding="UTF-8" standalone="no"?>
<!DOCTYPE svg PUBLIC "-//W3C//DTD SVG 1.1//EN"
 "http://www.w3.org/Graphics/SVG/1.1/DTD/svg11.dtd">
<!-- Generated by graphviz version 2.43.0 (0)
 -->
<!-- Title: packages Pages: 1 -->
<svg width="605pt" height="116pt"
 viewBox="0.00 0.00 605.00 116.00" xmlns="http://www.w3.org/2000/svg" xmlns:xlink="http://www.w3.org/1999/xlink">
<g id="graph0" class="graph" transform="scale(1 1) rotate(0) translate(4 112)">
<title>packages</title>
<polygon fill="white" stroke="transparent" points="-4,4 -4,-112 601,-112 601,4 -4,4"/>
<!-- shoal -->
<g id="node1" class="node">
<title>shoal</title>
<polygon fill="none" stroke="black" points="54,-36 0,-36 0,0 54,0 54,-36"/>
<text text-anchor="middle" x="27" y="-14.3" font-family="Times,serif" font-size="14.00">shoal</text>
</g>
<!-- shoal.can_skip -->
<g id="node2" class="node">
<title>shoal.can_skip</title>
<polygon fill="none" stroke="black" points="191.5,-36 72.5,-36 72.5,0 191.5,0 191.5,-36"/>
<text text-anchor="middle" x="132" y="-14.3" font-family="Times,serif" font-size="14.00">shoal.can_skip</text>
</g>
<!-- shoal.log -->
<g id="node5" class="node">
<title>shoal.log</title>
<polygon fill="none" stroke="black" points="286,-108 206,-108 206,-72 286,-72 286,-108"/>
<text text-anchor="middle" x="246" y="-86.3" font-family="Times,serif" font-size="14.00">shoal.log</text>
</g>
<!-- shoal.can_skip&#45;&gt;shoal.log -->
<g id="edge1" class="edge">
<title>shoal.can_skip&#45;&gt;shoal.log</title>
<path fill="none" stroke="black" d="M159.89,-36.12C174.79,-45.28 193.33,-56.66 209.38,-66.52"/>
<polygon fill="black" stroke="black" points="218.01,-71.81 207.13,-70.41 213.74,-69.19 209.48,-66.58 209.48,-66.58 209.48,-66.58 213.74,-69.19 211.84,-62.74 218.01,-71.81 218.01,-71.81"/>
</g>
<!-- shoal.cli -->
<g id="node3" class="node">
<title>shoal.cli</title>
<polygon fill="none" stroke="black" points="414.5,-36 339.5,-36 339.5,0 414.5,0 414.5,-36"/>
<text text-anchor="middle" x="377" y="-14.3" font-family="Times,serif" font-size="14.00">shoal.cli</text>
</g>
<!-- shoal.invoke_helpers -->
<g id="node4" class="node">
<title>shoal.invoke_helpers</title>
<polygon fill="none" stroke="black" points="469.5,-108 304.5,-108 304.5,-72 469.5,-72 469.5,-108"/>
<text text-anchor="middle" x="387" y="-86.3" font-family="Times,serif" font-size="14.00">shoal.invoke_helpers</text>
</g>
<!-- shoal.cli&#45;&gt;shoal.invoke_helpers -->
<g id="edge2" class="edge">
<title>shoal.cli&#45;&gt;shoal.invoke_helpers</title>
<path fill="none" stroke="black" d="M379.47,-36.3C380.57,-44.02 381.9,-53.29 383.13,-61.89"/>
<polygon fill="black" stroke="black" points="384.56,-71.9 378.69,-62.63 383.85,-66.95 383.14,-62 383.14,-62 383.14,-62 383.85,-66.95 387.6,-61.36 384.56,-71.9 384.56,-71.9"/>
</g>
<!-- shoal.cli&#45;&gt;shoal.log -->
<g id="edge3" class="edge">
<title>shoal.cli&#45;&gt;shoal.log</title>
<path fill="none" stroke="black" d="M344.95,-36.12C327.51,-45.45 305.73,-57.08 287.06,-67.06"/>
<polygon fill="black" stroke="black" points="278.17,-71.81 284.87,-63.13 282.58,-69.45 286.99,-67.1 286.99,-67.1 286.99,-67.1 282.58,-69.45 289.11,-71.07 278.17,-71.81 278.17,-71.81"/>
</g>
<!-- shoal.pretty_process -->
<g id="node6" class="node">
<title>shoal.pretty_process</title>
<polygon fill="none" stroke="black" points="597,-36 433,-36 433,0 597,0 597,-36"/>
<text text-anchor="middle" x="515" y="-14.3" font-family="Times,serif" font-size="14.00">shoal.pretty_process</text>
</g>
<!-- shoal.shell -->
<g id="node7" class="node">
<title>shoal.shell</title>
<polygon fill="none" stroke="black" points="302,-36 210,-36 210,0 302,0 302,-36"/>
<text text-anchor="middle" x="256" y="-14.3" font-family="Times,serif" font-size="14.00">shoal.shell</text>
</g>
<!-- shoal.shell&#45;&gt;shoal.log -->
<g id="edge4" class="edge">
<title>shoal.shell&#45;&gt;shoal.log</title>
<path fill="none" stroke="black" d="M253.53,-36.3C252.43,-44.02 251.1,-53.29 249.87,-61.89"/>
<polygon fill="black" stroke="black" points="248.44,-71.9 245.4,-61.36 249.15,-66.95 249.86,-62 249.86,-62 249.86,-62 249.15,-66.95 254.31,-62.63 248.44,-71.9 248.44,-71.9"/>
</g>
</g>
</svg>
